<svg width="232" height="92" viewBox="0 0 232 92" fill="none" xmlns="http://www.w3.org/2000/svg">
<path d="M4.224 91.5V78.06L38.784 45.42C41.5147 42.9453 43.52 40.7267 44.8 38.764C46.08 36.8013 46.9333 35.0093 47.36 33.388C47.872 31.7667 48.128 30.2733 48.128 28.908C48.128 25.324 46.8907 22.5933 44.416 20.716C42.0267 18.7533 38.4853 17.772 33.792 17.772C30.0373 17.772 26.5387 18.4973 23.296 19.948C20.1387 21.3987 17.4507 23.66 15.232 26.732L0.128 17.004C3.54133 11.884 8.32 7.83066 14.464 4.84399C20.608 1.85733 27.6907 0.363998 35.712 0.363998C42.368 0.363998 48.1707 1.47333 53.12 3.69199C58.1547 5.82533 62.0373 8.85467 64.768 12.78C67.584 16.7053 68.992 21.3987 68.992 26.86C68.992 29.7613 68.608 32.6627 67.84 35.564C67.1573 38.38 65.7067 41.3667 63.488 44.524C61.3547 47.6813 58.1973 51.2227 54.016 55.148L25.344 82.156L21.376 74.604H71.936V91.5H4.224ZM78.093 72.684V58.732L120.333 1.89999H142.093L100.749 58.732L90.637 55.788H161.165V72.684H78.093ZM126.349 91.5V72.684L126.989 55.788V39.02H146.573V91.5H126.349Z" fill="#FCFCFC"/>
<path d="M192.455 76.268V17.132H208.967V76.268H192.455ZM170.311 54.508V38.892H231.239V54.508H170.311Z" fill="#25CCC7"/>
</svg>
