<svg width="22" height="22" viewBox="0 0 22 22" fill="none" xmlns="http://www.w3.org/2000/svg">
<path d="M5.02441 1.82612C4.94324 1.7217 4.84078 1.63575 4.72384 1.57398C4.6069 1.5122 4.47815 1.47601 4.34615 1.46782C4.21415 1.45963 4.08191 1.47961 3.95823 1.52645C3.83455 1.57329 3.72224 1.64591 3.62878 1.73949L2.20703 3.16262C1.54291 3.82812 1.29816 4.76999 1.58828 5.59637C2.79243 9.0168 4.75119 12.1222 7.31928 14.6824C9.87943 17.2504 12.9849 19.2092 16.4053 20.4134C17.2317 20.7035 18.1735 20.4587 18.839 19.7946L20.2608 18.3729C20.3544 18.2794 20.427 18.1671 20.4738 18.0434C20.5207 17.9197 20.5406 17.7875 20.5325 17.6555C20.5243 17.5235 20.4881 17.3948 20.4263 17.2778C20.3645 17.1609 20.2786 17.0584 20.1742 16.9772L17.002 14.5105C16.8905 14.424 16.7607 14.3639 16.6226 14.3349C16.4844 14.3058 16.3415 14.3085 16.2045 14.3427L13.1933 15.0949C12.7913 15.1953 12.3702 15.19 11.971 15.0794C11.5717 14.9688 11.2079 14.7567 10.9149 14.4637L7.53791 11.0854C7.24472 10.7925 7.03236 10.4288 6.92151 10.0295C6.81067 9.63023 6.80512 9.20905 6.90541 8.80699L7.65891 5.79574C7.69316 5.65879 7.69585 5.51584 7.66679 5.37769C7.63773 5.23954 7.57768 5.10979 7.49116 4.99824L5.02441 1.82612ZM2.59066 0.702741C2.83128 0.462046 3.12035 0.275295 3.43868 0.154887C3.757 0.0344798 4.09731 -0.0168288 4.43698 0.00436863C4.77666 0.025566 5.10794 0.118784 5.40883 0.277834C5.70972 0.436883 5.97333 0.658124 6.18216 0.926866L8.64891 4.09762C9.10128 4.67924 9.26078 5.43687 9.08203 6.15187L8.32991 9.16312C8.29102 9.31908 8.29312 9.48245 8.33601 9.63737C8.37889 9.79228 8.4611 9.93348 8.57466 10.0472L11.953 13.4256C12.0669 13.5394 12.2084 13.6218 12.3635 13.6646C12.5187 13.7075 12.6824 13.7095 12.8385 13.6704L15.8484 12.9182C16.2013 12.83 16.5695 12.8232 16.9254 12.8982C17.2813 12.9732 17.6155 13.1282 17.9027 13.3514L21.0734 15.8181C22.2133 16.705 22.3178 18.3894 21.2975 19.4082L19.8758 20.83C18.8583 21.8475 17.3375 22.2944 15.9199 21.7952C12.2915 20.5186 8.99716 18.4414 6.28116 15.7177C3.55768 13.0021 1.4805 9.70825 0.203659 6.08037C-0.294091 4.66412 0.152784 3.14199 1.17028 2.12449L2.59203 0.702741H2.59066Z" fill="black"/>
</svg>
