<svg width="70" height="70" viewBox="0 0 70 70" fill="none" xmlns="http://www.w3.org/2000/svg">
<path fill-rule="evenodd" clip-rule="evenodd" d="M13.125 25.293C13.125 13.6464 23.0265 4.375 35 4.375C46.9735 4.375 56.875 13.6464 56.875 25.293C56.875 31.8588 53.325 39.9822 49.4362 47.0037C45.4866 54.1348 40.9377 60.559 38.5011 63.8493C38.0995 64.3963 37.5752 64.8417 36.9702 65.1496C36.3599 65.4603 35.6848 65.6222 35 65.6222C34.3152 65.6222 33.6401 65.4603 33.0298 65.1496C32.4225 64.8405 31.8965 64.3929 31.4943 63.8431C29.0566 60.5497 24.5109 54.1266 20.5638 46.999C16.6751 39.977 13.125 31.8542 13.125 25.293ZM35 8.75C25.2353 8.75 17.5 16.265 17.5 25.293C17.5 30.6263 20.5124 37.8754 24.3911 44.8795C28.2009 51.7591 32.6137 58.0008 35 61.2257C37.3862 58.0023 41.7991 51.7629 45.609 44.884C49.4875 37.8811 52.5 30.6312 52.5 25.293C52.5 16.265 44.7647 8.75 35 8.75Z" fill="#FCFCFC"/>
<path fill-rule="evenodd" clip-rule="evenodd" d="M35 21.875C32.5838 21.875 30.625 23.8338 30.625 26.25C30.625 28.6662 32.5838 30.625 35 30.625C37.4162 30.625 39.375 28.6662 39.375 26.25C39.375 23.8338 37.4162 21.875 35 21.875ZM26.25 26.25C26.25 21.4175 30.1675 17.5 35 17.5C39.8325 17.5 43.75 21.4175 43.75 26.25C43.75 31.0825 39.8325 35 35 35C30.1675 35 26.25 31.0825 26.25 26.25Z" fill="#FCFCFC"/>
</svg>
