<svg width="22" height="22" viewBox="0 0 22 22" fill="none" xmlns="http://www.w3.org/2000/svg">
<path fill-rule="evenodd" clip-rule="evenodd" d="M17.8204 4.17228C16.9306 3.282 15.8734 2.57651 14.7098 2.09644C13.5462 1.61637 12.2991 1.37119 11.0404 1.37501C5.75781 1.37501 1.4575 5.65384 1.45535 10.9141C1.45301 12.5891 1.89453 14.2347 2.73496 15.6836L1.375 20.625L6.45605 19.2986C7.86252 20.0605 9.43694 20.4593 11.0365 20.4587H11.0404C16.3225 20.4587 20.6224 16.1795 20.625 10.9197C20.6282 9.66522 20.3819 8.42266 19.9004 7.26428C19.4189 6.10591 18.7119 5.05486 17.8204 4.17228ZM11.0404 18.8487H11.037C9.61098 18.8491 8.21094 18.4675 6.98242 17.7435L6.69152 17.5717L3.67641 18.3588L4.48121 15.4331L4.29172 15.1323C3.49438 13.87 3.07194 12.4071 3.07355 10.9141C3.07355 6.54287 6.64898 2.98634 11.0434 2.98634C13.1514 2.98258 15.1747 3.8163 16.668 5.30413C18.1614 6.79196 19.0027 8.81205 19.0068 10.9201C19.0051 15.2917 15.4314 18.8487 11.0404 18.8487ZM15.4099 12.9108C15.1705 12.7914 13.9919 12.2147 13.7736 12.1352C13.5554 12.0558 13.3942 12.0158 13.2348 12.2547C13.0754 12.4936 12.6161 13.0281 12.4764 13.1893C12.3368 13.3504 12.1971 13.368 11.9578 13.2486C11.7184 13.1291 10.9463 12.8777 10.0315 12.0656C9.31949 11.4336 8.8391 10.6533 8.69945 10.4148C8.5598 10.1763 8.68441 10.047 8.8043 9.92837C8.91215 9.82138 9.04363 9.64994 9.16352 9.51072C9.2834 9.3715 9.32336 9.27181 9.40285 9.11283C9.48234 8.95384 9.44281 8.81462 9.38309 8.6956C9.32336 8.57658 8.84426 7.4031 8.64488 6.92572C8.45023 6.46079 8.25301 6.52396 8.10605 6.51665C7.96641 6.50978 7.80527 6.50806 7.64672 6.50806C7.52551 6.51122 7.40625 6.53933 7.29639 6.59063C7.18653 6.64194 7.08843 6.71534 7.0082 6.80626C6.78863 7.04517 6.16988 7.62267 6.16988 8.79486C6.16988 9.96704 7.02926 11.1014 7.14785 11.2604C7.26645 11.4194 8.83652 13.8269 11.2389 14.8595C11.685 15.0505 12.1408 15.218 12.6045 15.3613C13.1781 15.5427 13.7002 15.5173 14.1127 15.4559C14.5729 15.3876 15.5306 14.8792 15.7296 14.3224C15.9285 13.7655 15.9289 13.2885 15.8692 13.1893C15.8095 13.09 15.6496 13.0299 15.4099 12.9108Z" fill="black"/>
</svg>
