<svg width="22" height="22" viewBox="0 0 22 22" fill="none" xmlns="http://www.w3.org/2000/svg">
<path fill-rule="evenodd" clip-rule="evenodd" d="M3.78125 4.8125C3.21171 4.8125 2.75 5.27421 2.75 5.84375V16.1562C2.75 16.7258 3.21171 17.1875 3.78125 17.1875H18.2188C18.7883 17.1875 19.25 16.7258 19.25 16.1562V5.84375C19.25 5.27421 18.7883 4.8125 18.2188 4.8125H3.78125ZM1.375 5.84375C1.375 4.51481 2.45231 3.4375 3.78125 3.4375H18.2188C19.5477 3.4375 20.625 4.51481 20.625 5.84375V16.1562C20.625 17.4852 19.5477 18.5625 18.2188 18.5625H3.78125C2.45231 18.5625 1.375 17.4852 1.375 16.1562V5.84375Z" fill="black"/>
<path fill-rule="evenodd" clip-rule="evenodd" d="M4.26985 6.45292C4.50296 6.1532 4.9349 6.09921 5.23462 6.33232L11 10.8165L16.7654 6.33232C17.0652 6.09921 17.4971 6.1532 17.7302 6.45292C17.9633 6.75263 17.9093 7.18457 17.6096 7.41768L11.4221 12.2302C11.1739 12.4233 10.8262 12.4233 10.5779 12.2302L4.39045 7.41768C4.09073 7.18457 4.03674 6.75263 4.26985 6.45292Z" fill="black"/>
</svg>
