<svg width="70" height="70" viewBox="0 0 70 70" fill="none" xmlns="http://www.w3.org/2000/svg">
<path fill-rule="evenodd" clip-rule="evenodd" d="M12.0312 15.3125C10.2191 15.3125 8.75 16.7816 8.75 18.5938V51.4062C8.75 53.2184 10.2191 54.6875 12.0312 54.6875H57.9688C59.7809 54.6875 61.25 53.2184 61.25 51.4062V18.5938C61.25 16.7816 59.7809 15.3125 57.9688 15.3125H12.0312ZM4.375 18.5938C4.375 14.3653 7.80282 10.9375 12.0312 10.9375H57.9688C62.1972 10.9375 65.625 14.3653 65.625 18.5938V51.4062C65.625 55.6347 62.1972 59.0625 57.9688 59.0625H12.0312C7.80282 59.0625 4.375 55.6347 4.375 51.4062V18.5938Z" fill="#FCFCFC"/>
<path fill-rule="evenodd" clip-rule="evenodd" d="M13.5859 20.5321C14.3276 19.5785 15.702 19.4067 16.6556 20.1484L35.0001 34.4163L53.3446 20.1484C54.2982 19.4067 55.6726 19.5785 56.4143 20.5321C57.156 21.4857 56.9842 22.8601 56.0306 23.6018L36.3431 38.9143C35.5532 39.5287 34.447 39.5287 33.6571 38.9143L13.9696 23.6018C13.016 22.8601 12.8442 21.4857 13.5859 20.5321Z" fill="#FCFCFC"/>
</svg>
