<svg width="70" height="70" viewBox="0 0 70 70" fill="none" xmlns="http://www.w3.org/2000/svg">
<path d="M26.25 5.83341C26.25 4.2226 27.5559 2.91675 29.1667 2.91675H40.8333C42.4442 2.91675 43.75 4.2226 43.75 5.83341V8.75008C43.75 10.3609 42.4442 11.6667 40.8333 11.6667H29.1667C27.5559 11.6667 26.25 10.3609 26.25 8.75008V5.83341Z" fill="#FCFCFC"/>
<path d="M48.125 5.10425H21.875C19.0561 5.10425 16.7709 7.38946 16.7709 10.2084V59.7917C16.7709 62.6107 19.0561 64.8959 21.875 64.8959H48.125C50.944 64.8959 53.2292 62.6107 53.2292 59.7917V10.2084C53.2292 7.38946 50.944 5.10425 48.125 5.10425Z" stroke="#FCFCFC" stroke-width="3.75"/>
<path d="M26.25 56.875H43.75" stroke="#FCFCFC" stroke-width="3.75" stroke-linecap="round"/>
</svg>
