<svg width="55" height="53" viewBox="0 0 55 53" fill="none" xmlns="http://www.w3.org/2000/svg">
<g clip-path="url(#clip0_185_497)">
<path d="M54.7963 51.2968L17.7554 0.460101C17.4741 0.0739579 16.9654 -0.0918564 16.4986 0.0502701C16.0318 0.192397 15.7144 0.60969 15.7144 1.08161V51.9183C15.7144 52.5157 16.2169 53 16.8368 53H53.8776C54.2964 53 54.6804 52.7752 54.8736 52.4172C55.0667 52.0591 55.0369 51.6271 54.7963 51.2968ZM17.9593 50.8367V47.5918H21.3266V45.4285H17.9593V40.0204H21.3266V37.8571H17.9593V32.449H21.3266V30.2857H17.9593V24.8775H21.3266V22.7143H17.9593V17.3061H21.3266V15.1428H17.9593V4.50443L51.718 50.8367H17.9593Z" fill="#FCFCFC"/>
<path d="M25.255 43.2653H37.0407C37.4659 43.2653 37.8545 43.0338 38.0447 42.6674C38.2348 42.3009 38.1937 41.8624 37.9387 41.5347L26.153 26.3918C25.863 26.0193 25.3585 25.8673 24.9001 26.0147C24.4418 26.1619 24.1326 26.5753 24.1326 27.0408V42.1837C24.1326 42.7811 24.6351 43.2653 25.255 43.2653ZM26.3775 30.2857L34.7958 41.102H26.3775V30.2857Z" fill="#FCFCFC"/>
<path d="M12.3469 0H1.12245C0.502521 0 0 0.484247 0 1.08163V51.9184C0 52.5158 0.502521 53 1.12245 53H12.3469C12.9669 53 13.4694 52.5158 13.4694 51.9184V1.08163C13.4694 0.484247 12.9669 0 12.3469 0ZM11.2245 50.8367H2.2449V45.9694H6.73469V43.8061H2.2449V37.3163H6.73469V35.1531H2.2449V27.5816H6.73469V25.4184H2.2449V17.8469H6.73469V15.6837H2.2449V9.19388H6.73469V7.03061H2.2449V2.16327H11.2245V50.8367Z" fill="#FCFCFC"/>
</g>
<defs>
<clipPath id="clip0_185_497">
<rect width="55" height="53" fill="white"/>
</clipPath>
</defs>
</svg>
