<svg width="63" height="63" viewBox="0 0 63 63" fill="none" xmlns="http://www.w3.org/2000/svg">
<path d="M26.4672 59.8196C29.8949 63.2745 33.0778 63.2473 36.5056 59.8196L40.695 55.6573C41.1302 55.2493 41.5111 55.086 42.0824 55.086H47.9585C52.8279 55.086 55.0861 52.8554 55.0861 47.9585V42.0824C55.0861 41.5111 55.2493 41.1303 55.6572 40.695L59.7922 36.5055C63.2743 33.0778 63.2471 29.8949 59.7922 26.4672L55.6572 22.2777C55.2493 21.8696 55.0861 21.4616 55.0861 20.9176V15.0142C55.0861 10.1718 52.8553 7.88673 47.9585 7.88673H42.0824C41.5111 7.88673 41.1302 7.7507 40.695 7.34259L36.5056 3.18038C33.0778 -0.274599 29.8949 -0.247322 26.4672 3.18038L22.2777 7.34259C21.8697 7.7507 21.4616 7.88673 20.9174 7.88673H15.0142C10.1446 7.88673 7.88669 10.1175 7.88669 15.0142V20.9176C7.88669 21.4616 7.75065 21.8696 7.34266 22.2777L3.18034 26.4672C-0.274527 29.8949 -0.247366 33.0778 3.18034 36.5055L7.34266 40.695C7.75065 41.1303 7.88669 41.5111 7.88669 42.0824V47.9585C7.88669 52.8281 10.1446 55.086 15.0142 55.086H20.9174C21.4616 55.086 21.8697 55.2493 22.2777 55.6573L26.4672 59.8196ZM26.9024 45.1837C26.0592 45.1837 25.515 44.9117 25.107 44.4492L16.0207 34.3564C15.6399 33.9212 15.4223 33.3771 15.4223 32.8058C15.4223 31.5271 16.4017 30.575 17.7891 30.575C18.5236 30.575 19.0676 30.8199 19.5573 31.3368L26.7664 39.3076L40.7767 19.5845C41.3207 18.7956 41.8647 18.4691 42.817 18.4691C44.15 18.4691 45.1021 19.4485 45.1021 20.7271C45.1021 21.1896 44.9116 21.7337 44.6124 22.1689L28.7523 44.3404C28.3443 44.8572 27.7187 45.1837 26.9024 45.1837Z" fill="#FCFCFC"/>
</svg>
