<svg width="45" height="45" viewBox="0 0 45 45" fill="none" xmlns="http://www.w3.org/2000/svg">
<path d="M30.5312 42.202C31.7488 40.1671 33.539 39.1246 35.9131 39.0968C38.2871 39.069 39.4853 37.8598 39.5242 35.4802C39.5576 33.1117 40.5889 31.3214 42.6238 30.1094C44.6643 28.8918 45.1063 27.2544 43.9443 25.1806C42.7878 23.1123 42.7878 21.0441 43.9443 18.9702C45.1063 16.902 44.667 15.2674 42.6238 14.0498C40.5889 12.8294 39.5548 11.0419 39.5242 8.6623C39.4853 6.29381 38.2871 5.08455 35.9131 5.05675C33.539 5.02339 31.7488 3.98648 30.5312 1.95159C29.3136 -0.0888728 27.6762 -0.530879 25.6079 0.631126C23.5397 1.78757 21.4659 1.78757 19.3976 0.631126C17.3266 -0.5281 15.6892 -0.0888728 14.4716 1.95159C13.2568 3.98926 11.4637 5.02617 9.09246 5.05675C6.72397 5.08455 5.52027 6.29381 5.48691 8.6623C5.44799 11.0419 4.41664 12.8266 2.38174 14.0498C0.341285 15.2674 -0.106281 16.8992 1.06128 18.9702C2.22329 21.0441 2.22329 23.1123 1.06128 25.1806C-0.106281 27.2544 0.338505 28.8945 2.38174 30.1094C4.41664 31.3214 5.45077 33.1117 5.48691 35.4802C5.52027 37.857 6.72397 39.069 9.09246 39.0968C11.4665 39.1246 13.2568 40.1671 14.4744 42.202C15.692 44.2425 17.3294 44.6845 19.3976 43.5169C21.4659 42.3716 23.5397 42.3716 25.6079 43.5169C27.6762 44.6817 29.3163 44.2425 30.5312 42.202ZM22.5083 35.0659C15.3306 35.0659 9.51501 29.2504 9.51501 22.0726C9.51501 14.9004 15.3306 9.08485 22.5083 9.08485C29.6805 9.08485 35.4961 14.9004 35.4961 22.0726C35.4961 29.2504 29.6805 35.0659 22.5083 35.0659Z" fill="#FCFCFC"/>
</svg>
