<svg width="61" height="53" viewBox="0 0 61 53" fill="none" xmlns="http://www.w3.org/2000/svg">
<path d="M53.9712 11.1031C51.2188 14.4486 43.6727 23.6867 37.6785 31.0297L30.0674 23.3028C36.9513 17.1765 45.4724 9.60403 48.5518 6.89231C54.0301 2.06403 58.834 -0.808154 59.878 0.365909C60.5321 1.01591 58.7954 5.23278 53.9712 11.1031ZM36.348 32.6547C34.0263 35.4964 32.0276 37.944 30.8048 39.4451L21.7941 30.664C23.2546 29.364 25.686 27.2008 28.5054 24.6942L36.348 32.6547ZM29.4621 41.0904V41.0661C24.2316 61.1348 0.988037 49.5973 0.988037 49.5973C0.988037 49.5973 10.7401 50.8262 10.7401 41.7303C10.7401 32.9126 19.7019 32.1164 20.2524 32.0758L29.4804 41.0681C29.4804 41.0701 29.4621 41.0904 29.4621 41.0904Z" fill="#FCFCFC"/>
</svg>
