<svg width="49" height="66" viewBox="0 0 49 66" fill="none" xmlns="http://www.w3.org/2000/svg">
<path d="M27.1066 25.8785C27.5535 24.5378 29.4466 24.5378 29.8935 25.8785L32.5138 33.7475C33.0905 35.4773 34.0623 37.049 35.352 38.3381C36.6417 39.6271 38.214 40.598 39.9441 41.1738L47.8091 43.7941C49.1497 44.241 49.1497 46.1341 47.8091 46.581L39.94 49.2013C38.2102 49.778 36.6385 50.7498 35.3495 52.0395C34.0605 53.3292 33.0896 54.9015 32.5138 56.6316L29.8935 64.4966C29.7971 64.7902 29.6105 65.0458 29.3603 65.227C29.1101 65.4083 28.809 65.5058 28.5 65.5058C28.1911 65.5058 27.89 65.4083 27.6398 65.227C27.3895 65.0458 27.2029 64.7902 27.1066 64.4966L24.4863 56.6275C23.9099 54.8981 22.9388 53.3267 21.6498 52.0377C20.3608 50.7488 18.7894 49.7776 17.06 49.2013L9.19096 46.581C8.8974 46.4846 8.64177 46.298 8.46053 46.0478C8.27929 45.7976 8.18171 45.4965 8.18171 45.1875C8.18171 44.8786 8.27929 44.5775 8.46053 44.3273C8.64177 44.077 8.8974 43.8904 9.19096 43.7941L17.06 41.1738C18.7894 40.5974 20.3608 39.6263 21.6498 38.3373C22.9388 37.0483 23.9099 35.4769 24.4863 33.7475L27.1066 25.8785ZM11.4131 5.16377C11.4714 4.98784 11.5836 4.83475 11.7339 4.72624C11.8841 4.61773 12.0647 4.55932 12.25 4.55932C12.4353 4.55932 12.616 4.61773 12.7662 4.72624C12.9164 4.83475 13.0286 4.98784 13.0869 5.16377L14.6591 9.8844C15.3619 11.9888 17.0113 13.6381 19.1157 14.341L23.8363 15.9131C24.0122 15.9714 24.1653 16.0836 24.2738 16.2339C24.3823 16.3841 24.4407 16.5647 24.4407 16.75C24.4407 16.9353 24.3823 17.116 24.2738 17.2662C24.1653 17.4164 24.0122 17.5286 23.8363 17.5869L19.1157 19.1591C18.0778 19.5049 17.1347 20.0876 16.3612 20.8612C15.5876 21.6347 15.0049 22.5778 14.6591 23.6156L13.0869 28.3363C13.0286 28.5122 12.9164 28.6653 12.7662 28.7738C12.616 28.8823 12.4353 28.9407 12.25 28.9407C12.0647 28.9407 11.8841 28.8823 11.7339 28.7738C11.5836 28.6653 11.4714 28.5122 11.4131 28.3363L9.84096 23.6156C9.49518 22.5778 8.91242 21.6347 8.13888 20.8612C7.36534 20.0876 6.42227 19.5049 5.3844 19.1591L0.663774 17.5869C0.487845 17.5286 0.334749 17.4164 0.22624 17.2662C0.11773 17.116 0.0593262 16.9353 0.0593262 16.75C0.0593262 16.5647 0.11773 16.3841 0.22624 16.2339C0.334749 16.0836 0.487845 15.9714 0.663774 15.9131L5.3844 14.341C6.42227 13.9952 7.36534 13.4124 8.13888 12.6389C8.91242 11.8653 9.49518 10.9223 9.84096 9.8844L11.4131 5.16377ZM40.131 0.902208C40.1711 0.786534 40.2462 0.686229 40.346 0.615239C40.4457 0.54425 40.5651 0.506104 40.6875 0.506104C40.81 0.506104 40.9293 0.54425 41.0291 0.615239C41.1288 0.686229 41.204 0.786534 41.2441 0.902208L42.2922 4.04658C42.7594 5.45221 43.8603 6.55315 45.266 7.02033L48.4103 8.06846C48.526 8.10856 48.6263 8.18371 48.6973 8.28346C48.7683 8.3832 48.8064 8.50259 48.8064 8.62502C48.8064 8.74745 48.7683 8.86684 48.6973 8.96658C48.6263 9.06633 48.526 9.14148 48.4103 9.18158L45.266 10.2297C44.5733 10.4601 43.9438 10.8489 43.4276 11.3651C42.9114 11.8813 42.5226 12.5108 42.2922 13.2035L41.2441 16.3478C41.204 16.4635 41.1288 16.5638 41.0291 16.6348C40.9293 16.7058 40.81 16.7439 40.6875 16.7439C40.5651 16.7439 40.4457 16.7058 40.346 16.6348C40.2462 16.5638 40.1711 16.4635 40.131 16.3478L39.0828 13.2035C38.8524 12.5108 38.4636 11.8813 37.9474 11.3651C37.4312 10.8489 36.8018 10.4601 36.1091 10.2297L32.9688 9.18158C32.8531 9.14148 32.7528 9.06633 32.6818 8.96658C32.6108 8.86684 32.5727 8.74745 32.5727 8.62502C32.5727 8.50259 32.6108 8.3832 32.6818 8.28346C32.7528 8.18371 32.8531 8.10856 32.9688 8.06846L36.1131 7.02033C37.5188 6.55315 38.6197 5.45221 39.0869 4.04658L40.131 0.906271V0.902208Z" fill="#FCFCFC"/>
</svg>
