<svg width="55" height="41" viewBox="0 0 55 41" fill="none" xmlns="http://www.w3.org/2000/svg">
<path d="M42.5594 9.62038L42.5336 9.58598C42.4003 9.39247 42.1337 9.34947 41.9445 9.48277L38.6763 11.7705C38.4828 11.9038 38.4398 12.1704 38.5731 12.3596L38.5989 12.394C38.7322 12.5875 38.9988 12.6305 39.188 12.4972L42.4562 10.2095C42.6454 10.0762 42.6927 9.80959 42.5594 9.62038ZM51.1771 22.5211L49.4054 30.7861C48.9668 32.8416 47.9734 34.4112 46.5629 35.4863C45.5868 36.2302 44.4214 36.7248 43.1098 36.9699L44.2709 39.4554C44.5203 39.9929 44.2881 40.6337 43.7506 40.8831C43.2131 41.1325 42.5723 40.9003 42.3229 40.3628L40.8178 37.1462H15.0938L13.5887 40.3628C13.3393 40.9003 12.6986 41.1325 12.1611 40.8831C11.6235 40.6337 11.3913 39.9929 11.6407 39.4554L12.7373 37.1075C11.0602 36.9613 9.68413 36.4237 8.57467 35.5035C7.2803 34.4284 6.39445 32.8675 5.86552 30.8334L3.6853 22.5211H1.98241C1.44058 22.5211 0.946052 22.2975 0.584832 21.9406V21.9363L0.580532 21.9406C0.223612 21.5793 0 21.0848 0 20.5387V18.7369C0 18.1907 0.223612 17.6962 0.580532 17.335C0.606333 17.3092 0.636435 17.2791 0.666536 17.2576C1.01486 16.9437 1.47498 16.7545 1.97811 16.7545H2.24042C2.31353 15.9718 2.61454 15.2322 3.07897 14.5872C3.55199 13.9249 4.20563 13.3616 4.94957 12.9746C5.69781 12.5832 6.54496 12.3639 7.4007 12.3897C8.15324 12.4155 8.90148 12.6219 9.59382 13.0606C9.89484 12.6219 10.269 12.2306 10.699 11.9081C11.5418 11.276 12.5954 10.8976 13.7349 10.8976C14.681 10.8976 15.5668 11.1556 16.3194 11.6028C16.9085 11.9511 17.4159 12.4198 17.8116 12.9703C19.0113 13.0649 20.095 13.5766 20.9077 14.3592C21.5743 15.0043 22.0559 15.8299 22.2666 16.7502H51.1857V6.08559C50.5579 3.00232 48.7776 2.16377 46.3995 2.50349C47.4703 4.36979 47.3327 6.2662 45.8147 8.2013C46.0082 8.51522 45.991 8.85924 45.7803 9.22476L45.3073 9.77089C45.1181 9.9644 44.8815 9.9816 44.5762 9.73649L37.3088 2.39599C37.111 2.15947 37.1497 1.95306 37.3819 1.77245C37.898 1.14032 37.9625 1.03281 38.8784 1.18762C40.9167 -0.136852 42.8561 -0.373365 44.6837 0.675893C49.2721 -1.20761 53.1767 1.15752 53.7056 5.97378V16.8792C53.9765 16.9781 54.2174 17.1372 54.4152 17.335C54.7721 17.6919 54.9957 18.1907 54.9957 18.7369V20.5387C54.9957 21.0848 54.7721 21.5793 54.4152 21.9406C54.0582 22.2975 53.5594 22.5211 53.0176 22.5211H51.1771ZM38.4441 6.08559L38.4183 6.05119C38.285 5.85768 38.0184 5.81467 37.8292 5.94798L34.561 8.23571C34.3675 8.36901 34.3245 8.63563 34.4578 8.82484L34.4836 8.85924C34.6169 9.05275 34.8835 9.09575 35.0727 8.96245L38.3409 6.67472C38.5344 6.54141 38.5774 6.2748 38.4441 6.08559ZM36.5649 4.19348L36.5391 4.15908C36.4058 3.96557 36.1392 3.92257 35.95 4.05588L32.6818 6.3436C32.4883 6.47691 32.4453 6.74352 32.5786 6.93273L32.6044 6.96714C32.7377 7.16065 33.0043 7.20365 33.1935 7.07034L36.4617 4.78262C36.6509 4.64931 36.6982 4.38269 36.5649 4.19348ZM40.319 7.91319L40.2932 7.87879C40.1599 7.68528 39.8933 7.64227 39.7041 7.77558L36.4359 10.0633C36.2424 10.1966 36.1994 10.4632 36.3327 10.6524L36.3585 10.6868C36.4918 10.8803 36.7584 10.9234 36.9476 10.79L40.2201 8.50232C40.405 8.36901 40.4523 8.1067 40.319 7.91319ZM4.42494 16.7545H20.0133C19.8757 16.4363 19.6736 16.1524 19.4242 15.9159C18.9124 15.4214 18.2029 15.1161 17.4159 15.1161C17.2955 15.1161 17.4246 15.1118 17.3428 15.1118L17.2697 15.1161C16.8655 15.1333 16.4656 14.9226 16.2678 14.5398C16.0356 14.0969 15.6744 13.7228 15.2314 13.4605C14.8014 13.2068 14.2897 13.0563 13.7435 13.0563C13.0813 13.0563 12.475 13.2713 11.9977 13.6282C11.5203 13.9894 11.1634 14.4925 11.0086 15.0688C10.957 15.2881 10.8323 15.4945 10.6431 15.6493C10.183 16.0234 9.50352 15.9546 9.1294 15.4945C8.60047 14.8452 7.96403 14.5613 7.3405 14.5398C6.86747 14.5226 6.38585 14.6517 5.95152 14.8796C5.5129 15.1118 5.12588 15.4472 4.83776 15.8428C4.63565 16.1266 4.48944 16.4363 4.42494 16.7545ZM3.6552 18.9132C3.48319 18.9562 3.31118 18.9519 3.14777 18.9132H2.15872V20.3581H52.8413V18.9132H3.6552ZM5.90852 22.5211L7.94683 30.2916C8.35966 31.8741 9.01329 33.0653 9.95074 33.8393C10.8667 34.6004 12.1009 34.9875 13.7048 34.9875H41.1188C42.7787 34.9875 44.1935 34.5789 45.2514 33.7748C46.2576 33.0094 46.9672 31.8612 47.294 30.3389L48.9711 22.5211H5.90852Z" fill="#FCFCFC"/>
</svg>
