<svg width="55" height="53" viewBox="0 0 55 53" fill="none" xmlns="http://www.w3.org/2000/svg">
<path d="M10.2921 0.200745C9.98884 0.200775 9.69799 0.321268 9.48354 0.535722C9.26908 0.750176 9.14859 1.04103 9.14856 1.34431V5.32894L1.62155 10.7051C1.47349 10.811 1.35287 10.9509 1.26974 11.1129C1.1866 11.2749 1.14335 11.4544 1.14357 11.6364V16.2107C1.1436 16.514 1.26409 16.8049 1.47855 17.0193C1.693 17.2338 1.98386 17.3543 2.28714 17.3543H27.4457C27.749 17.3543 28.0398 17.2338 28.2543 17.0193C28.4687 16.8049 28.5892 16.514 28.5892 16.2107V11.6364C28.5895 11.4544 28.5462 11.2749 28.4631 11.1129C28.3799 10.9509 28.2593 10.811 28.1113 10.7051L20.5843 5.33117V1.34431C20.5842 1.04103 20.4637 0.750176 20.2493 0.535722C20.0348 0.321268 19.744 0.200775 19.4407 0.200745L10.2921 0.200745ZM11.4357 2.48788H18.2971V5.91859C18.2969 6.10068 18.3401 6.28019 18.4233 6.44219C18.5064 6.60418 18.627 6.74399 18.7751 6.84998L26.3021 12.2239V15.0672H3.43071V12.2239L10.9577 6.84998C11.1058 6.74399 11.2264 6.60418 11.3095 6.44219C11.3927 6.28019 11.4359 6.10068 11.4357 5.91859V2.48788ZM6.28963 24.2157C5.54147 24.2157 4.91484 24.6938 4.67926 25.3593H1.14357C0.840286 25.3593 0.549432 25.4798 0.334977 25.6943C0.120523 25.9087 3.03239e-05 26.1996 0 26.5029L0 51.6614C3.03239e-05 51.9647 0.120523 52.2555 0.334977 52.47C0.549432 52.6844 0.840286 52.8049 1.14357 52.805H53.8572C54.1605 52.8049 54.4514 52.6844 54.6658 52.47C54.8803 52.2555 55.0008 51.9647 55.0008 51.6614V26.5029C55.0008 26.1996 54.8803 25.9087 54.6658 25.6943C54.4514 25.4798 54.1605 25.3593 53.8572 25.3593H25.0536C24.818 24.6938 24.1914 24.2157 23.4432 24.2157H6.28963ZM2.28714 27.6464H6.28963H23.4432H27.5551V50.5178H2.28714V27.6464ZM29.8423 27.6464H52.7137V34.5078H29.8423V27.6464ZM5.71785 29.9336C5.41457 29.9336 5.12371 30.0541 4.90926 30.2685C4.6948 30.483 4.57431 30.7738 4.57428 31.0771V47.0871C4.57431 47.3904 4.6948 47.6813 4.90926 47.8957C5.12371 48.1102 5.41457 48.2307 5.71785 48.2307H24.015C24.3183 48.2307 24.6091 48.1102 24.8236 47.8957C25.038 47.6813 25.1585 47.3904 25.1585 47.0871V31.0771C25.1585 30.7738 25.038 30.483 24.8236 30.2685C24.6091 30.0541 24.3183 29.9336 24.015 29.9336H5.71785ZM34.3071 29.9336C34.1556 29.9314 34.0051 29.9594 33.8645 30.0159C33.7239 30.0724 33.5959 30.1563 33.488 30.2627C33.38 30.3691 33.2943 30.4959 33.2359 30.6357C33.1774 30.7755 33.1472 30.9256 33.1472 31.0771C33.1472 31.2287 33.1774 31.3787 33.2359 31.5185C33.2943 31.6583 33.38 31.7851 33.488 31.8915C33.5959 31.9979 33.7239 32.0818 33.8645 32.1383C34.0051 32.1948 34.1556 32.2228 34.3071 32.2207H48.0299C48.1815 32.2228 48.3319 32.1948 48.4725 32.1383C48.6132 32.0818 48.7412 31.9979 48.8491 31.8915C48.957 31.7851 49.0427 31.6583 49.1012 31.5185C49.1597 31.3787 49.1898 31.2287 49.1898 31.0771C49.1898 30.9256 49.1597 30.7755 49.1012 30.6357C49.0427 30.4959 48.957 30.3691 48.8491 30.2627C48.7412 30.1563 48.6132 30.0724 48.4725 30.0159C48.3319 29.9594 48.1815 29.9314 48.0299 29.9336H34.3071ZM6.86142 32.2207H22.8714V45.9435H6.86142V32.2207ZM29.8423 36.795H52.7137V50.5178H29.8423V36.795ZM34.2892 40.2101C33.9863 40.2148 33.6977 40.3395 33.4866 40.5568C33.2756 40.7742 33.1594 41.0664 33.1635 41.3693V47.0871C33.1614 47.2386 33.1894 47.3891 33.2459 47.5297C33.3024 47.6703 33.3863 47.7983 33.4927 47.9063C33.5991 48.0142 33.7259 48.0999 33.8657 48.1584C34.0055 48.2169 34.1555 48.247 34.3071 48.247C34.4586 48.247 34.6087 48.2169 34.7485 48.1584C34.8883 48.0999 35.0151 48.0142 35.1215 47.9063C35.2279 47.7983 35.3118 47.6703 35.3683 47.5297C35.4248 47.3891 35.4528 47.2386 35.4507 47.0871V41.3693C35.4528 41.2163 35.4241 41.0644 35.3665 40.9227C35.3088 40.7809 35.2233 40.6522 35.115 40.5441C35.0067 40.436 34.8778 40.3508 34.736 40.2934C34.5941 40.236 34.4422 40.2077 34.2892 40.2101Z" fill="#FCFCFC"/>
</svg>
